<svg width="24" height="24" viewBox="0 0 24 24" fill="none" xmlns="http://www.w3.org/2000/svg">
<path d="M12 22.75C17.93 22.75 22.75 17.93 22.75 12C22.75 6.07 17.93 1.25 12 1.25C6.07 1.25 1.25 6.07 1.25 12C1.25 17.93 6.07 22.75 12 22.75ZM12 2.75C17.1 2.75 21.25 6.9 21.25 12C21.25 17.1 17.1 21.25 12 21.25C6.9 21.25 2.75 17.1 2.75 12C2.75 6.9 6.9 2.75 12 2.75Z" fill="white"/>
<path d="M14.9998 21.75H15.9998C16.4098 21.75 16.7498 21.41 16.7498 21C16.7498 20.59 16.4298 20.26 16.0198 20.25C17.5898 14.89 17.5898 9.11 16.0198 3.75C16.4298 3.74 16.7498 3.41 16.7498 3C16.7498 2.59 16.4098 2.25 15.9998 2.25H14.9998C14.7598 2.25 14.5298 2.37 14.3898 2.56C14.2498 2.76 14.2098 3.01 14.2898 3.24C16.1698 8.89 16.1698 15.11 14.2898 20.77C14.2098 21 14.2498 21.25 14.3898 21.45C14.5298 21.63 14.7598 21.75 14.9998 21.75Z" fill="white"/>
<path d="M9.00009 21.7502C9.08009 21.7502 9.16009 21.7402 9.24009 21.7102C9.63009 21.5802 9.85009 21.1502 9.71009 20.7602C7.83009 15.1102 7.83009 8.89018 9.71009 3.23018C9.84009 2.84018 9.63009 2.41018 9.24009 2.28018C8.84009 2.15018 8.42009 2.36018 8.29009 2.75018C6.30009 8.71018 6.30009 15.2702 8.29009 21.2202C8.39009 21.5502 8.69009 21.7502 9.00009 21.7502Z" fill="white"/>
<path d="M12 17.1998C14.79 17.1998 17.57 16.8098 20.25 16.0198C20.26 16.4198 20.59 16.7498 21 16.7498C21.41 16.7498 21.75 16.4098 21.75 15.9998V14.9998C21.75 14.7598 21.63 14.5298 21.44 14.3898C21.24 14.2498 20.99 14.2098 20.76 14.2898C15.11 16.1698 8.88 16.1698 3.23 14.2898C3 14.2098 2.75 14.2498 2.55 14.3898C2.35 14.5298 2.24 14.7598 2.24 14.9998V15.9998C2.24 16.4098 2.58 16.7498 2.99 16.7498C3.4 16.7498 3.73 16.4298 3.74 16.0198C6.43 16.8098 9.21 17.1998 12 17.1998Z" fill="white"/>
<path d="M3.00022 9.74986C3.08022 9.74986 3.16022 9.73986 3.24022 9.70986C8.89021 7.82986 15.1202 7.82986 20.7702 9.70986C21.1702 9.83986 21.5902 9.62986 21.7202 9.23986C21.8402 8.83986 21.6302 8.41986 21.2402 8.28986C15.2802 6.29986 8.72022 6.29986 2.77022 8.28986C2.38022 8.41986 2.16022 8.84986 2.30021 9.23986C2.39021 9.54986 2.69022 9.74986 3.00022 9.74986Z" fill="white"/>
</svg>
