<svg width="114" height="93" viewBox="0 0 114 93" fill="none" xmlns="http://www.w3.org/2000/svg">
<path d="M113.266 23.8053C110.413 6.305 82.7809 -3.7643 51.5143 1.31719C38.4606 3.43252 26.8529 7.86613 17.9497 13.5799C26.1467 9.41325 34.9533 6.57054 44.0416 5.15757C73.1977 0.419536 98.9926 9.84096 101.65 26.147C104.308 42.453 82.8278 59.5474 53.6717 64.2854C47.8427 65.2447 41.9346 65.6394 36.0296 65.4641C44.6237 66.3696 53.3011 66.1071 61.8245 64.6835C93.091 59.6176 116.119 41.3134 113.266 23.8053Z" fill="white"/>
<path d="M89.1532 60.1836C84.3639 62.9566 79.2872 65.2128 74.0105 66.9133L73.3818 67.2708L88.3124 92.9151H108.225L89.1532 60.1836Z" fill="white"/>
<path d="M19.3183 92.9152L61.2396 11.6221L61.224 11.6143H41.9292L0 92.9152H19.3183Z" fill="white"/>
<path d="M63.6148 15.8379L54.3765 33.9797C60.4122 44.6831 67.8029 57.8059 67.9415 58.0721C73.1806 56.153 78.1927 53.645 82.8846 50.5946C82.2456 49.4045 69.0116 25.5782 63.6148 15.8379Z" fill="white"/>
<path d="M58.7887 70.1404C50.9166 71.4466 42.9049 71.6935 34.9672 70.8747L31.7618 77.0694L31.6758 77.2647C39.1984 77.9218 46.774 77.6278 54.2229 76.3898C75.9179 72.8511 93.3599 62.4848 99.7785 50.6812C91.4289 59.7663 76.5355 67.2266 58.7887 70.1404Z" fill="white"/>
</svg>
